<?xml version="1.0" encoding="iso-8859-1"?>
<!-- Generator: Adobe Illustrator 19.0.0, SVG Export Plug-In . SVG Version: 6.00 Build 0)  -->
<svg version="1.1" id="Layer_1" xmlns="http://www.w3.org/2000/svg" xmlns:xlink="http://www.w3.org/1999/xlink" x="0px" y="0px"
	 viewBox="0 0 512 512" style="enable-background:new 0 0 512 512;" xml:space="preserve">
<g>
	<path style="fill:#450924;" d="M256,0c-37.642,0-68.267,30.624-68.267,68.267s30.624,68.267,68.267,68.267
		s68.267-30.624,68.267-68.267S293.643,0,256,0z"/>
	<path style="fill:#450924;" d="M159.359,144.465c-4.719-17.614-16.015-32.335-31.808-41.452
		c-15.791-9.117-34.187-11.539-51.802-6.821c-17.613,4.72-32.333,16.015-41.452,31.808s-11.539,34.189-6.82,51.802
		s16.015,32.335,31.808,41.452l0,0c10.519,6.073,22.192,9.176,34.023,9.175c5.929,0,11.898-0.779,17.779-2.354
		c17.613-4.719,32.335-16.015,41.453-31.808C161.658,180.474,164.078,162.078,159.359,144.465z"/>
	<path style="fill:#450924;" d="M152.539,315.733c-9.117-15.792-23.839-27.088-41.453-31.808
		c-17.613-4.716-36.01-2.296-51.801,6.821c-15.792,9.117-27.088,23.838-31.808,41.452c-4.72,17.613-2.297,36.01,6.82,51.802
		s23.839,27.088,41.452,31.808c5.881,1.576,11.849,2.354,17.779,2.354c11.828,0,23.505-3.103,34.023-9.175l0,0
		c15.792-9.117,27.088-23.838,31.808-41.452C164.078,349.922,161.656,331.526,152.539,315.733z"/>
	<path style="fill:#450924;" d="M256,375.467c-37.642,0-68.267,30.624-68.267,68.267S218.358,512,256,512
		s68.267-30.624,68.267-68.267S293.643,375.467,256,375.467z"/>
</g>
<g>
	<path style="fill:#D7C0AE;" d="M256,136.533c37.642,0,68.267-30.624,68.267-68.267S293.643,0,256,0"/>
	<path style="fill:#D7C0AE;" d="M256,512c37.642,0,68.267-30.624,68.267-68.267S293.643,375.467,256,375.467"/>
	<path style="fill:#D7C0AE;" d="M484.522,332.198c-4.718-17.613-16.015-32.335-31.807-41.452
		c-32.6-18.823-74.435-7.612-93.255,24.987c-18.821,32.6-7.611,74.433,24.988,93.253c10.519,6.073,22.192,9.176,34.022,9.175
		c5.929,0,11.899-0.779,17.779-2.354c17.613-4.72,32.335-16.015,41.453-31.808C486.82,368.208,489.242,349.811,484.522,332.198z"/>
	<path style="fill:#D7C0AE;" d="M477.702,128c-9.118-15.792-23.839-27.088-41.453-31.808c-17.612-4.717-36.011-2.296-51.801,6.821
		c-32.598,18.82-43.809,60.654-24.988,93.253c12.632,21.876,35.624,34.12,59.236,34.12c11.572-0.001,23.297-2.942,34.018-9.133
		c15.791-9.117,27.088-23.838,31.807-41.452C489.242,162.189,486.82,143.792,477.702,128z"/>
</g>
<circle style="fill:#FFFFFF;" cx="256" cy="256" r="182.044"/>
<path style="fill:#450924;" d="M256,455.111C146.21,455.111,56.889,365.79,56.889,256S146.21,56.889,256,56.889
	S455.111,146.21,455.111,256S365.79,455.111,256,455.111z M256,91.022c-90.969,0-164.978,74.009-164.978,164.978
	S165.032,420.978,256,420.978S420.978,346.969,420.978,256S346.969,91.022,256,91.022z"/>
<path style="fill:#100006;" d="M256,125.156c-72.148,0-130.844,58.697-130.844,130.844S183.853,386.844,256,386.844
	S386.845,328.148,386.845,256S328.148,125.156,256,125.156z"/>
<path style="fill:#a90041;" d="M256,386.844c72.148,0,130.844-58.697,130.844-130.844S328.148,125.156,256,125.156"/>
<path style="fill:#D7C0AE;" d="M256,56.889v34.133c90.969,0,164.978,74.009,164.978,164.978S346.969,420.978,256,420.978v34.133
	c109.79,0,199.111-89.321,199.111-199.111S365.79,56.889,256,56.889z"/>
<g>
</g>
<g>
</g>
<g>
</g>
<g>
</g>
<g>
</g>
<g>
</g>
<g>
</g>
<g>
</g>
<g>
</g>
<g>
</g>
<g>
</g>
<g>
</g>
<g>
</g>
<g>
</g>
<g>
</g>
</svg>
